<mxfile host="Electron" modified="2023-12-05T00:18:09.527Z" agent="Mozilla/5.0 (Windows NT 10.0; Win64; x64) AppleWebKit/537.36 (KHTML, like Gecko) draw.io/22.1.2 Chrome/114.0.5735.289 Electron/25.9.4 Safari/537.36" etag="p0jDhqXlVk0Yg1eBfrk_" version="22.1.2" type="device">
  <diagram name="Page-1" id="-KSbTchRi5oSx1KYFNA2">
    <mxGraphModel dx="1195" dy="703" grid="1" gridSize="10" guides="1" tooltips="1" connect="1" arrows="1" fold="1" page="1" pageScale="1" pageWidth="1169" pageHeight="827" math="0" shadow="0">
      <root>
        <mxCell id="0" />
        <mxCell id="1" parent="0" />
        <mxCell id="SRuLeg0DOs1BjyrIENVz-41" style="edgeStyle=orthogonalEdgeStyle;rounded=0;orthogonalLoop=1;jettySize=auto;html=1;exitX=0.25;exitY=0;exitDx=0;exitDy=0;entryX=0.5;entryY=1;entryDx=0;entryDy=0;endArrow=none;endFill=0;" parent="1" source="SRuLeg0DOs1BjyrIENVz-1" target="SRuLeg0DOs1BjyrIENVz-38" edge="1">
          <mxGeometry relative="1" as="geometry" />
        </mxCell>
        <mxCell id="SRuLeg0DOs1BjyrIENVz-42" style="edgeStyle=orthogonalEdgeStyle;rounded=0;orthogonalLoop=1;jettySize=auto;html=1;exitX=0.5;exitY=0;exitDx=0;exitDy=0;entryX=0.5;entryY=1;entryDx=0;entryDy=0;endArrow=none;endFill=0;" parent="1" source="SRuLeg0DOs1BjyrIENVz-1" target="SRuLeg0DOs1BjyrIENVz-40" edge="1">
          <mxGeometry relative="1" as="geometry" />
        </mxCell>
        <mxCell id="SRuLeg0DOs1BjyrIENVz-1" value="MVK" style="whiteSpace=wrap;html=1;align=center;" parent="1" vertex="1">
          <mxGeometry x="305" y="330" width="120" height="40" as="geometry" />
        </mxCell>
        <mxCell id="SRuLeg0DOs1BjyrIENVz-44" style="edgeStyle=orthogonalEdgeStyle;rounded=0;orthogonalLoop=1;jettySize=auto;html=1;exitX=0.25;exitY=0;exitDx=0;exitDy=0;entryX=0.5;entryY=1;entryDx=0;entryDy=0;endArrow=none;endFill=0;" parent="1" source="SRuLeg0DOs1BjyrIENVz-2" target="SRuLeg0DOs1BjyrIENVz-43" edge="1">
          <mxGeometry relative="1" as="geometry" />
        </mxCell>
        <mxCell id="SRuLeg0DOs1BjyrIENVz-45" style="edgeStyle=orthogonalEdgeStyle;rounded=0;orthogonalLoop=1;jettySize=auto;html=1;exitX=0.5;exitY=0;exitDx=0;exitDy=0;entryX=0.5;entryY=1;entryDx=0;entryDy=0;endArrow=none;endFill=0;" parent="1" source="SRuLeg0DOs1BjyrIENVz-2" target="SRuLeg0DOs1BjyrIENVz-39" edge="1">
          <mxGeometry relative="1" as="geometry" />
        </mxCell>
        <mxCell id="SRuLeg0DOs1BjyrIENVz-66" style="edgeStyle=orthogonalEdgeStyle;rounded=0;orthogonalLoop=1;jettySize=auto;html=1;exitX=1;exitY=0.5;exitDx=0;exitDy=0;entryX=0.5;entryY=1;entryDx=0;entryDy=0;endArrow=none;endFill=0;" parent="1" source="SRuLeg0DOs1BjyrIENVz-2" target="SRuLeg0DOs1BjyrIENVz-64" edge="1">
          <mxGeometry relative="1" as="geometry" />
        </mxCell>
        <mxCell id="SRuLeg0DOs1BjyrIENVz-2" value="Busz" style="whiteSpace=wrap;html=1;align=center;" parent="1" vertex="1">
          <mxGeometry x="525" y="330" width="120" height="40" as="geometry" />
        </mxCell>
        <mxCell id="SRuLeg0DOs1BjyrIENVz-36" style="edgeStyle=orthogonalEdgeStyle;rounded=0;orthogonalLoop=1;jettySize=auto;html=1;endArrow=none;endFill=0;entryX=0.5;entryY=1;entryDx=0;entryDy=0;exitX=0.25;exitY=0;exitDx=0;exitDy=0;" parent="1" source="SRuLeg0DOs1BjyrIENVz-3" target="SRuLeg0DOs1BjyrIENVz-35" edge="1">
          <mxGeometry relative="1" as="geometry">
            <mxPoint x="130" y="270" as="targetPoint" />
          </mxGeometry>
        </mxCell>
        <mxCell id="Q4waHepxoqTfr1Zh1z3l-3" style="edgeStyle=orthogonalEdgeStyle;rounded=0;orthogonalLoop=1;jettySize=auto;html=1;exitX=0.75;exitY=0;exitDx=0;exitDy=0;" parent="1" source="Q4waHepxoqTfr1Zh1z3l-4" edge="1">
          <mxGeometry relative="1" as="geometry">
            <mxPoint x="150" y="280" as="targetPoint" />
          </mxGeometry>
        </mxCell>
        <mxCell id="SRuLeg0DOs1BjyrIENVz-3" value="Tulajdonos" style="whiteSpace=wrap;html=1;align=center;" parent="1" vertex="1">
          <mxGeometry x="85" y="330" width="120" height="40" as="geometry" />
        </mxCell>
        <mxCell id="SRuLeg0DOs1BjyrIENVz-47" style="edgeStyle=orthogonalEdgeStyle;rounded=0;orthogonalLoop=1;jettySize=auto;html=1;exitX=0.25;exitY=0;exitDx=0;exitDy=0;entryX=1;entryY=1;entryDx=0;entryDy=0;endArrow=none;endFill=0;" parent="1" source="SRuLeg0DOs1BjyrIENVz-4" target="SRuLeg0DOs1BjyrIENVz-46" edge="1">
          <mxGeometry relative="1" as="geometry">
            <Array as="points">
              <mxPoint x="775" y="280" />
              <mxPoint x="741" y="280" />
            </Array>
          </mxGeometry>
        </mxCell>
        <mxCell id="SRuLeg0DOs1BjyrIENVz-50" style="edgeStyle=orthogonalEdgeStyle;rounded=0;orthogonalLoop=1;jettySize=auto;html=1;exitX=0.75;exitY=0;exitDx=0;exitDy=0;entryX=0.5;entryY=1;entryDx=0;entryDy=0;endArrow=none;endFill=0;" parent="1" source="SRuLeg0DOs1BjyrIENVz-4" target="SRuLeg0DOs1BjyrIENVz-48" edge="1">
          <mxGeometry relative="1" as="geometry" />
        </mxCell>
        <mxCell id="SRuLeg0DOs1BjyrIENVz-51" style="edgeStyle=orthogonalEdgeStyle;rounded=0;orthogonalLoop=1;jettySize=auto;html=1;exitX=1;exitY=0.5;exitDx=0;exitDy=0;entryX=0.5;entryY=1;entryDx=0;entryDy=0;endArrow=none;endFill=0;" parent="1" source="SRuLeg0DOs1BjyrIENVz-4" target="SRuLeg0DOs1BjyrIENVz-49" edge="1">
          <mxGeometry relative="1" as="geometry" />
        </mxCell>
        <mxCell id="SRuLeg0DOs1BjyrIENVz-53" style="edgeStyle=orthogonalEdgeStyle;rounded=0;orthogonalLoop=1;jettySize=auto;html=1;exitX=0.5;exitY=0;exitDx=0;exitDy=0;entryX=0.5;entryY=1;entryDx=0;entryDy=0;endArrow=none;endFill=0;" parent="1" source="SRuLeg0DOs1BjyrIENVz-4" target="SRuLeg0DOs1BjyrIENVz-52" edge="1">
          <mxGeometry relative="1" as="geometry" />
        </mxCell>
        <mxCell id="SRuLeg0DOs1BjyrIENVz-4" value="Sofőr" style="whiteSpace=wrap;html=1;align=center;" parent="1" vertex="1">
          <mxGeometry x="745" y="330" width="120" height="40" as="geometry" />
        </mxCell>
        <mxCell id="SRuLeg0DOs1BjyrIENVz-60" style="edgeStyle=orthogonalEdgeStyle;rounded=0;orthogonalLoop=1;jettySize=auto;html=1;exitX=0.25;exitY=0;exitDx=0;exitDy=0;entryX=0.5;entryY=1;entryDx=0;entryDy=0;endArrow=none;endFill=0;" parent="1" source="SRuLeg0DOs1BjyrIENVz-5" target="SRuLeg0DOs1BjyrIENVz-59" edge="1">
          <mxGeometry relative="1" as="geometry" />
        </mxCell>
        <mxCell id="SRuLeg0DOs1BjyrIENVz-62" style="edgeStyle=orthogonalEdgeStyle;rounded=0;orthogonalLoop=1;jettySize=auto;html=1;exitX=0.75;exitY=0;exitDx=0;exitDy=0;entryX=0.5;entryY=1;entryDx=0;entryDy=0;endArrow=none;endFill=0;" parent="1" source="SRuLeg0DOs1BjyrIENVz-5" target="SRuLeg0DOs1BjyrIENVz-61" edge="1">
          <mxGeometry relative="1" as="geometry" />
        </mxCell>
        <mxCell id="SRuLeg0DOs1BjyrIENVz-5" value="Családtag" style="shape=ext;margin=3;double=1;whiteSpace=wrap;html=1;align=center;" parent="1" vertex="1">
          <mxGeometry x="965" y="330" width="120" height="40" as="geometry" />
        </mxCell>
        <mxCell id="SRuLeg0DOs1BjyrIENVz-17" style="edgeStyle=orthogonalEdgeStyle;rounded=0;orthogonalLoop=1;jettySize=auto;html=1;entryX=0.5;entryY=1;entryDx=0;entryDy=0;" parent="1" source="SRuLeg0DOs1BjyrIENVz-9" target="SRuLeg0DOs1BjyrIENVz-3" edge="1">
          <mxGeometry relative="1" as="geometry" />
        </mxCell>
        <mxCell id="SRuLeg0DOs1BjyrIENVz-18" style="edgeStyle=orthogonalEdgeStyle;rounded=0;orthogonalLoop=1;jettySize=auto;html=1;entryX=0.5;entryY=1;entryDx=0;entryDy=0;" parent="1" source="SRuLeg0DOs1BjyrIENVz-9" target="SRuLeg0DOs1BjyrIENVz-1" edge="1">
          <mxGeometry relative="1" as="geometry" />
        </mxCell>
        <mxCell id="SRuLeg0DOs1BjyrIENVz-9" value="tulajdon" style="shape=rhombus;perimeter=rhombusPerimeter;whiteSpace=wrap;html=1;align=center;" parent="1" vertex="1">
          <mxGeometry x="170" y="420" width="120" height="60" as="geometry" />
        </mxCell>
        <mxCell id="SRuLeg0DOs1BjyrIENVz-19" style="edgeStyle=orthogonalEdgeStyle;rounded=0;orthogonalLoop=1;jettySize=auto;html=1;entryX=0.75;entryY=1;entryDx=0;entryDy=0;" parent="1" source="SRuLeg0DOs1BjyrIENVz-11" target="SRuLeg0DOs1BjyrIENVz-1" edge="1">
          <mxGeometry relative="1" as="geometry" />
        </mxCell>
        <mxCell id="SRuLeg0DOs1BjyrIENVz-20" style="edgeStyle=orthogonalEdgeStyle;rounded=0;orthogonalLoop=1;jettySize=auto;html=1;entryX=0.5;entryY=1;entryDx=0;entryDy=0;endArrow=doubleBlock;endFill=1;" parent="1" source="SRuLeg0DOs1BjyrIENVz-11" target="SRuLeg0DOs1BjyrIENVz-2" edge="1">
          <mxGeometry relative="1" as="geometry" />
        </mxCell>
        <mxCell id="SRuLeg0DOs1BjyrIENVz-26" value="" style="edgeStyle=orthogonalEdgeStyle;rounded=0;orthogonalLoop=1;jettySize=auto;html=1;entryX=0.5;entryY=0;entryDx=0;entryDy=0;exitX=0;exitY=1;exitDx=0;exitDy=0;endArrow=none;endFill=0;" parent="1" source="SRuLeg0DOs1BjyrIENVz-12" target="SRuLeg0DOs1BjyrIENVz-27" edge="1">
          <mxGeometry relative="1" as="geometry">
            <mxPoint x="450" y="570" as="targetPoint" />
            <Array as="points">
              <mxPoint x="620" y="520" />
              <mxPoint x="560" y="520" />
            </Array>
          </mxGeometry>
        </mxCell>
        <mxCell id="SRuLeg0DOs1BjyrIENVz-29" style="edgeStyle=orthogonalEdgeStyle;rounded=0;orthogonalLoop=1;jettySize=auto;html=1;exitX=1;exitY=1;exitDx=0;exitDy=0;entryX=0.5;entryY=0;entryDx=0;entryDy=0;endArrow=none;endFill=0;" parent="1" source="SRuLeg0DOs1BjyrIENVz-12" target="SRuLeg0DOs1BjyrIENVz-28" edge="1">
          <mxGeometry relative="1" as="geometry">
            <Array as="points">
              <mxPoint x="680" y="520" />
              <mxPoint x="705" y="520" />
            </Array>
          </mxGeometry>
        </mxCell>
        <mxCell id="SRuLeg0DOs1BjyrIENVz-11" value="tulajdon" style="shape=rhombus;perimeter=rhombusPerimeter;whiteSpace=wrap;html=1;align=center;" parent="1" vertex="1">
          <mxGeometry x="390" y="440" width="120" height="60" as="geometry" />
        </mxCell>
        <mxCell id="SRuLeg0DOs1BjyrIENVz-21" style="edgeStyle=orthogonalEdgeStyle;rounded=0;orthogonalLoop=1;jettySize=auto;html=1;entryX=0.75;entryY=1;entryDx=0;entryDy=0;endArrow=doubleBlock;endFill=1;" parent="1" source="SRuLeg0DOs1BjyrIENVz-12" target="SRuLeg0DOs1BjyrIENVz-2" edge="1">
          <mxGeometry relative="1" as="geometry" />
        </mxCell>
        <mxCell id="SRuLeg0DOs1BjyrIENVz-22" style="edgeStyle=orthogonalEdgeStyle;rounded=0;orthogonalLoop=1;jettySize=auto;html=1;entryX=0.5;entryY=1;entryDx=0;entryDy=0;endArrow=doubleBlock;endFill=1;" parent="1" source="SRuLeg0DOs1BjyrIENVz-12" target="SRuLeg0DOs1BjyrIENVz-4" edge="1">
          <mxGeometry relative="1" as="geometry" />
        </mxCell>
        <mxCell id="8sG3ZI0zd1VorBRiexa_-4" style="edgeStyle=orthogonalEdgeStyle;rounded=0;orthogonalLoop=1;jettySize=auto;html=1;exitX=0.5;exitY=1;exitDx=0;exitDy=0;entryX=0.5;entryY=0;entryDx=0;entryDy=0;endArrow=none;endFill=0;" edge="1" parent="1" source="SRuLeg0DOs1BjyrIENVz-12" target="8sG3ZI0zd1VorBRiexa_-3">
          <mxGeometry relative="1" as="geometry" />
        </mxCell>
        <mxCell id="SRuLeg0DOs1BjyrIENVz-12" value="vezet" style="shape=rhombus;perimeter=rhombusPerimeter;whiteSpace=wrap;html=1;align=center;" parent="1" vertex="1">
          <mxGeometry x="590" y="460" width="120" height="60" as="geometry" />
        </mxCell>
        <mxCell id="SRuLeg0DOs1BjyrIENVz-24" style="edgeStyle=orthogonalEdgeStyle;rounded=0;orthogonalLoop=1;jettySize=auto;html=1;entryX=0.5;entryY=1;entryDx=0;entryDy=0;endArrow=doubleBlock;endFill=1;" parent="1" source="SRuLeg0DOs1BjyrIENVz-14" target="SRuLeg0DOs1BjyrIENVz-5" edge="1">
          <mxGeometry relative="1" as="geometry" />
        </mxCell>
        <mxCell id="SRuLeg0DOs1BjyrIENVz-33" style="edgeStyle=orthogonalEdgeStyle;rounded=0;orthogonalLoop=1;jettySize=auto;html=1;exitX=0;exitY=1;exitDx=0;exitDy=0;entryX=0.5;entryY=0;entryDx=0;entryDy=0;endArrow=none;endFill=0;" parent="1" source="SRuLeg0DOs1BjyrIENVz-14" target="SRuLeg0DOs1BjyrIENVz-31" edge="1">
          <mxGeometry relative="1" as="geometry">
            <Array as="points">
              <mxPoint x="863" y="530" />
              <mxPoint x="815" y="530" />
            </Array>
          </mxGeometry>
        </mxCell>
        <mxCell id="SRuLeg0DOs1BjyrIENVz-34" style="edgeStyle=orthogonalEdgeStyle;rounded=0;orthogonalLoop=1;jettySize=auto;html=1;exitX=1;exitY=1;exitDx=0;exitDy=0;entryX=0.5;entryY=0;entryDx=0;entryDy=0;endArrow=none;endFill=0;" parent="1" source="SRuLeg0DOs1BjyrIENVz-14" target="SRuLeg0DOs1BjyrIENVz-32" edge="1">
          <mxGeometry relative="1" as="geometry">
            <Array as="points">
              <mxPoint x="928" y="550" />
              <mxPoint x="1010" y="550" />
            </Array>
          </mxGeometry>
        </mxCell>
        <mxCell id="SRuLeg0DOs1BjyrIENVz-63" style="edgeStyle=orthogonalEdgeStyle;rounded=0;orthogonalLoop=1;jettySize=auto;html=1;exitX=0.5;exitY=0;exitDx=0;exitDy=0;entryX=0.75;entryY=1;entryDx=0;entryDy=0;" parent="1" source="SRuLeg0DOs1BjyrIENVz-14" target="SRuLeg0DOs1BjyrIENVz-4" edge="1">
          <mxGeometry relative="1" as="geometry" />
        </mxCell>
        <mxCell id="SRuLeg0DOs1BjyrIENVz-14" value="Rokon" style="shape=rhombus;double=1;perimeter=rhombusPerimeter;whiteSpace=wrap;html=1;align=center;" parent="1" vertex="1">
          <mxGeometry x="830" y="460" width="130" height="80" as="geometry" />
        </mxCell>
        <mxCell id="SRuLeg0DOs1BjyrIENVz-27" value="BuszREF" style="ellipse;whiteSpace=wrap;html=1;align=center;fontStyle=4;" parent="1" vertex="1">
          <mxGeometry x="510" y="530" width="100" height="40" as="geometry" />
        </mxCell>
        <mxCell id="SRuLeg0DOs1BjyrIENVz-28" value="SofőrREF" style="ellipse;whiteSpace=wrap;html=1;align=center;fontStyle=4;" parent="1" vertex="1">
          <mxGeometry x="655" y="540" width="100" height="40" as="geometry" />
        </mxCell>
        <mxCell id="SRuLeg0DOs1BjyrIENVz-31" value="SofőrREF" style="ellipse;whiteSpace=wrap;html=1;align=center;fontStyle=4;" parent="1" vertex="1">
          <mxGeometry x="765" y="550" width="100" height="40" as="geometry" />
        </mxCell>
        <mxCell id="SRuLeg0DOs1BjyrIENVz-32" value="CsaládtagREF" style="ellipse;whiteSpace=wrap;html=1;align=center;fontStyle=4;" parent="1" vertex="1">
          <mxGeometry x="960" y="590" width="100" height="40" as="geometry" />
        </mxCell>
        <mxCell id="SRuLeg0DOs1BjyrIENVz-35" value="Cégjegyzékszám" style="ellipse;whiteSpace=wrap;html=1;align=center;fontStyle=4;" parent="1" vertex="1">
          <mxGeometry y="220" width="110" height="50" as="geometry" />
        </mxCell>
        <mxCell id="SRuLeg0DOs1BjyrIENVz-38" value="Cégjegyzékszám" style="ellipse;whiteSpace=wrap;html=1;align=center;fontStyle=4;" parent="1" vertex="1">
          <mxGeometry x="190" y="210" width="110" height="50" as="geometry" />
        </mxCell>
        <mxCell id="SRuLeg0DOs1BjyrIENVz-39" value="Csuklós" style="ellipse;whiteSpace=wrap;html=1;align=center;" parent="1" vertex="1">
          <mxGeometry x="535" y="230" width="100" height="40" as="geometry" />
        </mxCell>
        <mxCell id="SRuLeg0DOs1BjyrIENVz-40" value="Megálló" style="ellipse;shape=doubleEllipse;margin=3;whiteSpace=wrap;html=1;align=center;" parent="1" vertex="1">
          <mxGeometry x="315" y="220" width="100" height="40" as="geometry" />
        </mxCell>
        <mxCell id="SRuLeg0DOs1BjyrIENVz-43" value="Sorozatszám" style="ellipse;whiteSpace=wrap;html=1;align=center;fontStyle=4;" parent="1" vertex="1">
          <mxGeometry x="440" y="190" width="100" height="40" as="geometry" />
        </mxCell>
        <mxCell id="SRuLeg0DOs1BjyrIENVz-46" value="Személyiigazolvány-szám" style="ellipse;whiteSpace=wrap;html=1;align=center;fontStyle=4;" parent="1" vertex="1">
          <mxGeometry x="630" y="170" width="130" height="60" as="geometry" />
        </mxCell>
        <mxCell id="SRuLeg0DOs1BjyrIENVz-48" value="Születési idő" style="ellipse;whiteSpace=wrap;html=1;align=center;" parent="1" vertex="1">
          <mxGeometry x="820" y="210" width="100" height="40" as="geometry" />
        </mxCell>
        <mxCell id="SRuLeg0DOs1BjyrIENVz-49" value="Életkor" style="ellipse;whiteSpace=wrap;html=1;align=center;dashed=1;" parent="1" vertex="1">
          <mxGeometry x="870" y="290" width="100" height="40" as="geometry" />
        </mxCell>
        <mxCell id="SRuLeg0DOs1BjyrIENVz-57" style="edgeStyle=orthogonalEdgeStyle;rounded=0;orthogonalLoop=1;jettySize=auto;html=1;exitX=0;exitY=0;exitDx=0;exitDy=0;entryX=0.5;entryY=1;entryDx=0;entryDy=0;endArrow=none;endFill=0;" parent="1" source="SRuLeg0DOs1BjyrIENVz-52" target="SRuLeg0DOs1BjyrIENVz-54" edge="1">
          <mxGeometry relative="1" as="geometry" />
        </mxCell>
        <mxCell id="SRuLeg0DOs1BjyrIENVz-58" style="edgeStyle=orthogonalEdgeStyle;rounded=0;orthogonalLoop=1;jettySize=auto;html=1;exitX=1;exitY=0;exitDx=0;exitDy=0;entryX=0.5;entryY=1;entryDx=0;entryDy=0;endArrow=none;endFill=0;" parent="1" source="SRuLeg0DOs1BjyrIENVz-52" target="SRuLeg0DOs1BjyrIENVz-55" edge="1">
          <mxGeometry relative="1" as="geometry" />
        </mxCell>
        <mxCell id="SRuLeg0DOs1BjyrIENVz-52" value="Teljes név" style="ellipse;whiteSpace=wrap;html=1;align=center;" parent="1" vertex="1">
          <mxGeometry x="755" y="140" width="100" height="40" as="geometry" />
        </mxCell>
        <mxCell id="SRuLeg0DOs1BjyrIENVz-54" value="Vezetéknév" style="ellipse;whiteSpace=wrap;html=1;align=center;" parent="1" vertex="1">
          <mxGeometry x="690" y="50" width="100" height="40" as="geometry" />
        </mxCell>
        <mxCell id="SRuLeg0DOs1BjyrIENVz-55" value="Keresztnév" style="ellipse;whiteSpace=wrap;html=1;align=center;" parent="1" vertex="1">
          <mxGeometry x="820" y="50" width="100" height="40" as="geometry" />
        </mxCell>
        <mxCell id="SRuLeg0DOs1BjyrIENVz-59" value="&lt;span style=&quot;border-bottom: 1px dotted&quot;&gt;Név&lt;/span&gt;" style="ellipse;whiteSpace=wrap;html=1;align=center;" parent="1" vertex="1">
          <mxGeometry x="945" y="200" width="100" height="40" as="geometry" />
        </mxCell>
        <mxCell id="SRuLeg0DOs1BjyrIENVz-61" value="Életkor" style="ellipse;whiteSpace=wrap;html=1;align=center;" parent="1" vertex="1">
          <mxGeometry x="1045" y="250" width="100" height="40" as="geometry" />
        </mxCell>
        <mxCell id="SRuLeg0DOs1BjyrIENVz-64" value="Típus" style="ellipse;whiteSpace=wrap;html=1;align=center;" parent="1" vertex="1">
          <mxGeometry x="620" y="270" width="100" height="40" as="geometry" />
        </mxCell>
        <mxCell id="Q4waHepxoqTfr1Zh1z3l-5" value="" style="edgeStyle=orthogonalEdgeStyle;rounded=0;orthogonalLoop=1;jettySize=auto;html=1;exitX=0.75;exitY=0;exitDx=0;exitDy=0;entryX=0.5;entryY=1;entryDx=0;entryDy=0;endArrow=none;endFill=0;" parent="1" source="SRuLeg0DOs1BjyrIENVz-3" target="Q4waHepxoqTfr1Zh1z3l-4" edge="1">
          <mxGeometry relative="1" as="geometry">
            <mxPoint x="150" y="280" as="targetPoint" />
            <mxPoint x="175" y="330" as="sourcePoint" />
            <Array as="points">
              <mxPoint x="175" y="310" />
              <mxPoint x="160" y="310" />
            </Array>
          </mxGeometry>
        </mxCell>
        <mxCell id="Q4waHepxoqTfr1Zh1z3l-4" value="Név" style="ellipse;whiteSpace=wrap;html=1;align=center;" parent="1" vertex="1">
          <mxGeometry x="110" y="260" width="100" height="40" as="geometry" />
        </mxCell>
        <mxCell id="8sG3ZI0zd1VorBRiexa_-2" style="edgeStyle=orthogonalEdgeStyle;rounded=0;orthogonalLoop=1;jettySize=auto;html=1;exitX=0.5;exitY=0;exitDx=0;exitDy=0;entryX=0.5;entryY=1;entryDx=0;entryDy=0;endArrow=none;endFill=0;" edge="1" parent="1" source="8sG3ZI0zd1VorBRiexa_-1" target="SRuLeg0DOs1BjyrIENVz-14">
          <mxGeometry relative="1" as="geometry" />
        </mxCell>
        <mxCell id="8sG3ZI0zd1VorBRiexa_-1" value="Rokoni kapcsolat" style="ellipse;whiteSpace=wrap;html=1;align=center;" vertex="1" parent="1">
          <mxGeometry x="845" y="600" width="100" height="40" as="geometry" />
        </mxCell>
        <mxCell id="8sG3ZI0zd1VorBRiexa_-3" value="Mikor" style="ellipse;whiteSpace=wrap;html=1;align=center;" vertex="1" parent="1">
          <mxGeometry x="580" y="580" width="100" height="40" as="geometry" />
        </mxCell>
      </root>
    </mxGraphModel>
  </diagram>
</mxfile>
